<?xml version="1.0" encoding="utf-8"?>
<COLLADA xmlns="http://www.collada.org/2005/11/COLLADASchema" version="1.4.1" xmlns:xsi="http://www.w3.org/2001/XMLSchema-instance">
  <asset>
    <contributor>
      <author>Blender User</author>
      <authoring_tool>Blender 4.5.12 LTS commit date:2026-07-20, commit time:13:37, hash:84afd5f785f7</authoring_tool>
    </contributor>
    <created>2026-07-26T02:29:55</created>
    <modified>2026-07-26T02:29:55</modified>
    <unit name="meter" meter="1"/>
    <up_axis>Z_UP</up_axis>
  </asset>
  <library_effects>
    <effect id="Material-effect">
      <profile_COMMON>
        <newparam sid="Logistics_png-surface">
          <surface type="2D">
            <init_from>Logistics_png</init_from>
          </surface>
        </newparam>
        <newparam sid="Logistics_png-sampler">
          <sampler2D>
            <source>Logistics_png-surface</source>
          </sampler2D>
        </newparam>
        <technique sid="common">
          <lambert>
            <emission>
              <color sid="emission">0 0 0 1</color>
            </emission>
            <diffuse>
              <texture texture="Logistics_png-sampler" texcoord="UVMap"/>
            </diffuse>
            <index_of_refraction>
              <float sid="ior">1.45</float>
            </index_of_refraction>
          </lambert>
        </technique>
      </profile_COMMON>
    </effect>
  </library_effects>
  <library_images>
    <image id="Logistics_png" name="Logistics_png">
      <init_from>Logistics.png</init_from>
    </image>
  </library_images>
  <library_materials>
    <material id="Material-material" name="Material">
      <instance_effect url="#Material-effect"/>
    </material>
  </library_materials>
  <library_geometries>
    <geometry id="Cube_001-mesh" name="Cube.001">
      <mesh>
        <source id="Cube_001-mesh-positions">
          <float_array id="Cube_001-mesh-positions-array" count="60">0.4379019 0.4379019 0.5 0.4375 0.4375 0 0.4379019 -0.4379019 0.5 0.4375 -0.4375 0 -0.4379019 0.4379019 0.5 -0.4375 0.4375 0 -0.4379019 -0.4379019 0.5 -0.4375 -0.4375 0 0.4375 0.4375 0.25 -0.4375 -0.4375 0.25 0.4375 -0.4375 0.25 -0.4375 0.4375 0.25 0.4921876 -0.4921876 0.5 -0.4921876 -0.4921876 0.5 0.4921876 0.4921876 0.5 -0.4921876 0.4921876 0.5 0.3753446 -0.3753445 0.25 -0.3753446 -0.3753445 0.25 0.3753446 0.3753445 0.25 -0.3753446 0.3753445 0.25</float_array>
          <technique_common>
            <accessor source="#Cube_001-mesh-positions-array" count="20" stride="3">
              <param name="X" type="float"/>
              <param name="Y" type="float"/>
              <param name="Z" type="float"/>
            </accessor>
          </technique_common>
        </source>
        <source id="Cube_001-mesh-normals">
          <float_array id="Cube_001-mesh-normals-array" count="108">0 -0.9700901 0.2427452 0 -0.9768999 -0.2136971 -0.9768999 0 -0.2136971 0 0 -1 0.9768999 0 -0.2136971 0 0.9768999 -0.2136971 0 1 0 1 0 0 -1 0 0 0 -1 0 0 0 1 0 0 1 0 0 1 0 0 1 0 0 1 -0.9700902 0 0.2427449 0.9700902 0 0.2427449 0 0.9700901 0.2427452 0 -0.9700901 0.2427452 0 -0.9769001 -0.2136971 -0.9769001 0 -0.2136971 0 0 -1 0.9769001 0 -0.2136971 0 0.9769001 -0.2136971 0 1 0 1 0 0 -1 0 0 0 -1 0 0 0 1 0 0 1 0 0 1 0 0 1 0 0 1 -0.9700902 0 0.2427449 0.9700902 0 0.2427449 0 0.9700901 0.2427452</float_array>
          <technique_common>
            <accessor source="#Cube_001-mesh-normals-array" count="36" stride="3">
              <param name="X" type="float"/>
              <param name="Y" type="float"/>
              <param name="Z" type="float"/>
            </accessor>
          </technique_common>
        </source>
        <source id="Cube_001-mesh-map-0">
          <float_array id="Cube_001-mesh-map-0-array" count="216">0.6211189 0.9413811 0.5702909 0.9413811 0.5663811 0.9413811 0.6875 0.9379882 0.671875 0.9960938 0.671875 0.9414063 0.6875 0.9379882 0.671875 0.9960938 0.671875 0.9414063 0.6210938 0.9414063 0.5664063 0.9960938 0.5664063 0.9414063 0.6875 0.9379882 0.671875 0.9960938 0.671875 0.9414063 0.6875 0.9379882 0.671875 0.9960938 0.671875 0.9414063 0.671875 0.9414063 0.65625 0.9960938 0.65625 0.9414063 0.671875 0.9414063 0.65625 0.9960938 0.65625 0.9414063 0.671875 0.9414063 0.65625 0.9960938 0.65625 0.9414063 0.671875 0.9414063 0.65625 0.9960938 0.65625 0.9414063 0.6211189 0.9961189 0.5629882 0.9995117 0.5663811 0.9961189 0.5663811 0.9961189 0.5629882 0.9379882 0.5663811 0.9413811 0.6211189 0.9413811 0.6245117 0.9995117 0.6211189 0.9961189 0.5663811 0.9413811 0.6245117 0.9379882 0.6211189 0.9413811 0.6172089 0.9452909 0.570291 0.9922091 0.570291 0.945291 0.5663811 0.9413811 0.5663811 0.992209 0.5663811 0.9961189 0.6211189 0.9961189 0.6211189 0.9452909 0.6211189 0.9413811 0.5663811 0.9961189 0.617209 0.9961189 0.6211189 0.9961189 0.6211189 0.9413811 0.617209 0.9413811 0.5702909 0.9413811 0.6875 0.9379882 0.6875 0.9995117 0.671875 0.9960938 0.6875 0.9379882 0.6875 0.9995117 0.671875 0.9960938 0.6210938 0.9414063 0.6210938 0.9960938 0.5664063 0.9960938 0.6875 0.9379882 0.6875 0.9995117 0.671875 0.9960938 0.6875 0.9379882 0.6875 0.9995117 0.671875 0.9960938 0.671875 0.9414063 0.671875 0.9960938 0.65625 0.9960938 0.671875 0.9414063 0.671875 0.9960938 0.65625 0.9960938 0.671875 0.9414063 0.671875 0.9960938 0.65625 0.9960938 0.671875 0.9414063 0.671875 0.9960938 0.65625 0.9960938 0.6211189 0.9961189 0.6245117 0.9995117 0.5629882 0.9995117 0.5663811 0.9961189 0.5629882 0.9995117 0.5629882 0.9379882 0.6211189 0.9413811 0.6245117 0.9379882 0.6245117 0.9995117 0.5663811 0.9413811 0.5629882 0.9379882 0.6245117 0.9379882 0.6172089 0.9452909 0.617209 0.992209 0.570291 0.9922091 0.5663811 0.9413811 0.5663811 0.9452909 0.5663811 0.992209 0.6211189 0.9961189 0.6211189 0.992209 0.6211189 0.9452909 0.5663811 0.9961189 0.5702909 0.9961189 0.617209 0.9961189</float_array>
          <technique_common>
            <accessor source="#Cube_001-mesh-map-0-array" count="108" stride="2">
              <param name="S" type="float"/>
              <param name="T" type="float"/>
            </accessor>
          </technique_common>
        </source>
        <vertices id="Cube_001-mesh-vertices">
          <input semantic="POSITION" source="#Cube_001-mesh-positions"/>
        </vertices>
        <triangles material="Material-material" count="36">
          <input semantic="VERTEX" source="#Cube_001-mesh-vertices" offset="0"/>
          <input semantic="NORMAL" source="#Cube_001-mesh-normals" offset="1"/>
          <input semantic="TEXCOORD" source="#Cube_001-mesh-map-0" offset="2" set="0"/>
          <p>4 0 0 18 0 1 0 0 2 12 1 3 9 1 4 10 1 5 13 2 6 11 2 7 9 2 8 1 3 9 7 3 10 5 3 11 14 4 12 10 4 13 8 4 14 15 5 15 8 5 16 11 5 17 11 6 18 1 6 19 5 6 20 8 7 21 3 7 22 1 7 23 9 8 24 5 8 25 7 8 26 10 9 27 7 9 28 3 9 29 6 10 30 12 10 31 2 10 32 2 11 33 14 11 34 0 11 35 4 12 36 13 12 37 6 12 38 0 13 39 15 13 40 4 13 41 19 14 42 16 14 43 18 14 44 0 15 45 16 15 46 2 15 47 6 16 48 19 16 49 4 16 50 2 17 51 17 17 52 6 17 53 4 18 54 19 18 55 18 18 56 12 19 57 13 19 58 9 19 59 13 20 60 15 20 61 11 20 62 1 21 63 3 21 64 7 21 65 14 22 66 12 22 67 10 22 68 15 23 69 14 23 70 8 23 71 11 24 72 8 24 73 1 24 74 8 25 75 10 25 76 3 25 77 9 26 78 11 26 79 5 26 80 10 27 81 9 27 82 7 27 83 6 28 84 13 28 85 12 28 86 2 29 87 12 29 88 14 29 89 4 30 90 15 30 91 13 30 92 0 31 93 14 31 94 15 31 95 19 32 96 17 32 97 16 32 98 0 33 99 18 33 100 16 33 101 6 34 102 17 34 103 19 34 104 2 35 105 16 35 106 17 35 107</p>
        </triangles>
      </mesh>
    </geometry>
    <geometry id="Cube-mesh" name="Cube">
      <mesh>
        <source id="Cube-mesh-positions">
          <float_array id="Cube-mesh-positions-array" count="60">0.4379019 0.4379019 0.5 0.4375 0.4375 0 0.4379019 -0.4379019 0.5 0.4375 -0.4375 0 -0.4379019 0.4379019 0.5 -0.4375 0.4375 0 -0.4379019 -0.4379019 0.5 -0.4375 -0.4375 0 0.4375 0.4375 0.25 -0.4375 -0.4375 0.25 0.4375 -0.4375 0.25 -0.4375 0.4375 0.25 0.4921876 -0.4921876 0.5 -0.4921876 -0.4921876 0.5 0.4921876 0.4921876 0.5 -0.4921876 0.4921876 0.5 0.3753446 -0.3753445 0.25 -0.3753446 -0.3753445 0.25 0.3753446 0.3753445 0.25 -0.3753446 0.3753445 0.25</float_array>
          <technique_common>
            <accessor source="#Cube-mesh-positions-array" count="20" stride="3">
              <param name="X" type="float"/>
              <param name="Y" type="float"/>
              <param name="Z" type="float"/>
            </accessor>
          </technique_common>
        </source>
        <source id="Cube-mesh-normals">
          <float_array id="Cube-mesh-normals-array" count="108">0 -0.9700901 0.2427452 0 -0.9768999 -0.2136971 -0.9768999 0 -0.2136971 0 0 -1 0.9768999 0 -0.2136971 0 0.9768999 -0.2136971 0 1 0 1 0 0 -1 0 0 0 -1 0 0 0 1 0 0 1 0 0 1 0 0 1 0 0 1 -0.9700902 0 0.2427449 0.9700902 0 0.2427449 0 0.9700901 0.2427452 0 -0.9700901 0.2427452 0 -0.9769001 -0.2136971 -0.9769001 0 -0.2136971 0 0 -1 0.9769001 0 -0.2136971 0 0.9769001 -0.2136971 0 1 0 1 0 0 -1 0 0 0 -1 0 0 0 1 0 0 1 0 0 1 0 0 1 0 0 1 -0.9700902 0 0.2427449 0.9700902 0 0.2427449 0 0.9700901 0.2427452</float_array>
          <technique_common>
            <accessor source="#Cube-mesh-normals-array" count="36" stride="3">
              <param name="X" type="float"/>
              <param name="Y" type="float"/>
              <param name="Z" type="float"/>
            </accessor>
          </technique_common>
        </source>
        <source id="Cube-mesh-map-0">
          <float_array id="Cube-mesh-map-0-array" count="216">0.6211189 0.9413811 0.5702909 0.9413811 0.5663811 0.9413811 0.65625 0.9379882 0.640625 0.9960938 0.640625 0.9414063 0.65625 0.9379882 0.640625 0.9960938 0.640625 0.9414063 0.6210938 0.9414063 0.5664063 0.9960938 0.5664063 0.9414063 0.65625 0.9379882 0.640625 0.9960938 0.640625 0.9414063 0.65625 0.9379882 0.640625 0.9960938 0.640625 0.9414063 0.640625 0.9414063 0.625 0.9960938 0.625 0.9414063 0.640625 0.9414063 0.625 0.9960938 0.625 0.9414063 0.640625 0.9414063 0.625 0.9960938 0.625 0.9414063 0.640625 0.9414063 0.625 0.9960938 0.625 0.9414063 0.6211189 0.9961189 0.5629882 0.9995117 0.5663811 0.9961189 0.5663811 0.9961189 0.5629882 0.9379882 0.5663811 0.9413811 0.6211189 0.9413811 0.6245117 0.9995117 0.6211189 0.9961189 0.5663811 0.9413811 0.6245117 0.9379882 0.6211189 0.9413811 0.6172089 0.9452909 0.570291 0.9922091 0.570291 0.945291 0.5663811 0.9413811 0.5663811 0.992209 0.5663811 0.9961189 0.6211189 0.9961189 0.6211189 0.9452909 0.6211189 0.9413811 0.5663811 0.9961189 0.617209 0.9961189 0.6211189 0.9961189 0.6211189 0.9413811 0.617209 0.9413811 0.5702909 0.9413811 0.65625 0.9379882 0.65625 0.9995117 0.640625 0.9960938 0.65625 0.9379882 0.65625 0.9995117 0.640625 0.9960938 0.6210938 0.9414063 0.6210938 0.9960938 0.5664063 0.9960938 0.65625 0.9379882 0.65625 0.9995117 0.640625 0.9960938 0.65625 0.9379882 0.65625 0.9995117 0.640625 0.9960938 0.640625 0.9414063 0.640625 0.9960938 0.625 0.9960938 0.640625 0.9414063 0.640625 0.9960938 0.625 0.9960938 0.640625 0.9414063 0.640625 0.9960938 0.625 0.9960938 0.640625 0.9414063 0.640625 0.9960938 0.625 0.9960938 0.6211189 0.9961189 0.6245117 0.9995117 0.5629882 0.9995117 0.5663811 0.9961189 0.5629882 0.9995117 0.5629882 0.9379882 0.6211189 0.9413811 0.6245117 0.9379882 0.6245117 0.9995117 0.5663811 0.9413811 0.5629882 0.9379882 0.6245117 0.9379882 0.6172089 0.9452909 0.617209 0.992209 0.570291 0.9922091 0.5663811 0.9413811 0.5663811 0.9452909 0.5663811 0.992209 0.6211189 0.9961189 0.6211189 0.992209 0.6211189 0.9452909 0.5663811 0.9961189 0.5702909 0.9961189 0.617209 0.9961189</float_array>
          <technique_common>
            <accessor source="#Cube-mesh-map-0-array" count="108" stride="2">
              <param name="S" type="float"/>
              <param name="T" type="float"/>
            </accessor>
          </technique_common>
        </source>
        <vertices id="Cube-mesh-vertices">
          <input semantic="POSITION" source="#Cube-mesh-positions"/>
        </vertices>
        <triangles material="Material-material" count="36">
          <input semantic="VERTEX" source="#Cube-mesh-vertices" offset="0"/>
          <input semantic="NORMAL" source="#Cube-mesh-normals" offset="1"/>
          <input semantic="TEXCOORD" source="#Cube-mesh-map-0" offset="2" set="0"/>
          <p>4 0 0 18 0 1 0 0 2 12 1 3 9 1 4 10 1 5 13 2 6 11 2 7 9 2 8 1 3 9 7 3 10 5 3 11 14 4 12 10 4 13 8 4 14 15 5 15 8 5 16 11 5 17 11 6 18 1 6 19 5 6 20 8 7 21 3 7 22 1 7 23 9 8 24 5 8 25 7 8 26 10 9 27 7 9 28 3 9 29 6 10 30 12 10 31 2 10 32 2 11 33 14 11 34 0 11 35 4 12 36 13 12 37 6 12 38 0 13 39 15 13 40 4 13 41 19 14 42 16 14 43 18 14 44 0 15 45 16 15 46 2 15 47 6 16 48 19 16 49 4 16 50 2 17 51 17 17 52 6 17 53 4 18 54 19 18 55 18 18 56 12 19 57 13 19 58 9 19 59 13 20 60 15 20 61 11 20 62 1 21 63 3 21 64 7 21 65 14 22 66 12 22 67 10 22 68 15 23 69 14 23 70 8 23 71 11 24 72 8 24 73 1 24 74 8 25 75 10 25 76 3 25 77 9 26 78 11 26 79 5 26 80 10 27 81 9 27 82 7 27 83 6 28 84 13 28 85 12 28 86 2 29 87 12 29 88 14 29 89 4 30 90 15 30 91 13 30 92 0 31 93 14 31 94 15 31 95 19 32 96 17 32 97 16 32 98 0 33 99 18 33 100 16 33 101 6 34 102 17 34 103 19 34 104 2 35 105 16 35 106 17 35 107</p>
        </triangles>
      </mesh>
    </geometry>
  </library_geometries>
  <library_visual_scenes>
    <visual_scene id="Scene" name="Scene">
      <node id="Output" name="Output" type="NODE">
        <matrix sid="transform">1 0 0 0 0 0 1 0 0 -1 0 0 0 0 0 1</matrix>
        <instance_geometry url="#Cube_001-mesh" name="Output">
          <bind_material>
            <technique_common>
              <instance_material symbol="Material-material" target="#Material-material">
                <bind_vertex_input semantic="UVMap" input_semantic="TEXCOORD" input_set="0"/>
              </instance_material>
            </technique_common>
          </bind_material>
        </instance_geometry>
      </node>
      <node id="Input" name="Input" type="NODE">
        <matrix sid="transform">1 0 0 0 0 0 1 0 0 -1 0 0 0 0 0 1</matrix>
        <instance_geometry url="#Cube-mesh" name="Input">
          <bind_material>
            <technique_common>
              <instance_material symbol="Material-material" target="#Material-material">
                <bind_vertex_input semantic="UVMap" input_semantic="TEXCOORD" input_set="0"/>
              </instance_material>
            </technique_common>
          </bind_material>
        </instance_geometry>
      </node>
    </visual_scene>
  </library_visual_scenes>
  <scene>
    <instance_visual_scene url="#Scene"/>
  </scene>
</COLLADA>